<?xml version="1.0" encoding="utf-8"?>
<svg xmlns="http://www.w3.org/2000/svg" width="300.000000pt" height="300.000000pt" viewBox="0 0 300.000000 300.000000" preserveAspectRatio="xMidYMid meet">
<g transform="translate(0.000000,300.000000) scale(0.100000,-0.100000)" fill="#333333" stroke="none">
<path class="node" id="node1" d="M600 2991 c-78 -24 -157 -86 -205 -159 -56 -87 -55 -57 -55 -1332 0
-1275 -1 -1245 55 -1332 35 -54 93 -107 150 -137 l50 -26 905 0 905 0 50 26
c57 30 115 83 150 137 48 74 55 135 55 460 0 166 -4 303 -8 306 -5 3 -59 -39
-120 -92 l-112 -97 0 -208 c0 -239 -7 -268 -64 -292 -53 -22 -1659 -22 -1712
0 -68 28 -64 -43 -64 1255 0 1298 -4 1227 64 1255 53 22 1659 22 1712 0 57
-24 64 -53 64 -292 l0 -208 112 -97 c61 -53 115 -95 120 -92 4 3 8 140 8 306
0 325 -7 386 -55 460 -35 54 -93 107 -150 137 l-50 26 -890 2 c-490 1 -901 -2
-915 -6z" fill="#4d27a1" style="position: relative; fill: rgb(77, 39, 161);"></path>
<path class="node" id="node2" d="M1895 2249 c-43 -21 -49 -46 -53 -226 l-4 -173 -342 0 c-196 0 -356
-4 -377 -10 -75 -21 -74 -17 -74 -340 0 -323 -1 -319 74 -340 21 -6 181 -10
379 -10 l342 0 0 -142 c1 -162 10 -215 41 -240 45 -38 79 -25 186 69 55 49
126 111 159 139 460 398 594 516 594 524 0 8 -204 188 -595 524 -32 28 -98 85
-145 127 -128 114 -140 120 -185 98z" fill="#31a338" style="position: relative; fill: rgb(49, 163, 56);"></path>
</g>
<g transform="translate(0.000000,300.000000) scale(0.100000,-0.100000)" fill="#FFFFFF" stroke="none">


</g>
</svg>
