<?xml version="1.0" encoding="utf-8"?>
<svg xmlns="http://www.w3.org/2000/svg" width="300.000000pt" height="300.000000pt" viewBox="0 0 300.000000 300.000000" preserveAspectRatio="xMidYMid meet">
<g transform="translate(0.000000,300.000000) scale(0.100000,-0.100000)" fill="#333333" stroke="none">
<path class="node" id="node1" d="M1398 2731 c-136 -44 -229 -147 -259 -289 -32 -154 61 -330 211 -401
48 -23 68 -26 155 -26 88 0 106 3 155 27 72 35 143 107 177 177 35 75 43 194
18 272 -64 194 -267 300 -457 240z" fill="#4d27a1" style="position: relative; fill: rgb(77, 39, 161);"></path>
<path class="node" id="node2" d="M1152 1900 c-137 -36 -264 -123 -331 -228 -17 -27 -31 -52 -31 -55 0
-12 91 -8 180 7 245 41 367 25 511 -70 25 -16 27 -16 70 12 128 85 245 99 489
58 90 -15 163 -18 173 -8 9 10 -51 93 -102 142 -67 64 -165 118 -255 141 -72
19 -108 21 -355 20 -238 0 -286 -3 -349 -19z" fill="#4d27a1" style="position: relative; fill: rgb(77, 39, 161);"></path>
<path class="node" id="node3" d="M550 1626 c0 -8 11 -83 25 -168 14 -84 28 -167 31 -184 4 -29 8 -32
49 -38 119 -16 199 -111 200 -236 0 -102 -44 -172 -149 -235 -15 -9 -15 -16
-1 -88 16 -86 21 -92 117 -156 73 -49 154 -67 246 -55 37 4 115 8 173 9 105 0
106 0 165 -37 32 -20 60 -35 61 -34 5 5 7 249 5 668 l-2 418 -47 30 c-100 63
-221 82 -368 57 -223 -38 -333 -31 -442 29 -44 23 -63 29 -63 20z" fill="#4d27a1" style="position: relative; fill: rgb(49, 163, 56);"></path>
<path class="node" id="node4" d="M2392 1605 c-95 -60 -212 -67 -441 -28 -149 25 -277 4 -373 -60 l-33
-23 -8 -474 c-4 -261 -5 -507 -2 -546 l6 -72 56 34 c72 43 103 48 222 39 53
-5 135 -8 182 -9 75 0 93 4 141 28 31 16 77 47 102 70 41 37 46 48 60 116 14
68 14 76 -1 85 -9 6 -34 24 -57 40 -167 125 -100 403 104 431 l45 6 29 176
c15 98 30 187 33 200 7 28 -1 27 -65 -13z" fill="#4d27a1" style="position: relative; fill: rgb(49, 163, 56);"></path>
<path class="node" id="node5" d="M571 1172 c-113 -44 -148 -213 -62 -305 78 -85 201 -74 266 25 24 36
29 53 29 106 0 53 -5 69 -30 105 -30 43 -101 87 -139 86 -11 0 -40 -8 -64 -17z" fill="#31a338" style="position: relative; fill: rgb(77, 39, 161);"></path>
<path class="node" id="node6" d="M2325 1178 c-38 -13 -90 -62 -110 -104 -35 -73 -7 -179 61 -230 32
-25 47 -29 99 -29 52 0 67 4 99 29 43 32 76 100 76 154 -1 80 -62 160 -138
182 -44 12 -48 12 -87 -2z" fill="#31a338" style="position: relative; fill: rgb(77, 39, 161); left: 656.167px; top: 396.067px;" transform="translate(0,0) scale(1)"></path>
</g>
<g transform="translate(0.000000,300.000000) scale(0.100000,-0.100000)" fill="#A7A7A7" stroke="none">

</g>
</svg>
