<?xml version="1.0" encoding="utf-8"?>
<svg xmlns="http://www.w3.org/2000/svg" width="286.000000pt" height="300.000000pt" viewBox="0 0 286.000000 300.000000" preserveAspectRatio="xMidYMid meet">
<g transform="translate(0.000000,300.000000) scale(0.100000,-0.100000)" fill="#202020" stroke="none">
<path style="position: relative; fill: rgb(22, 128, 64);" d="M1298 2849 c-10 -5 -18 -7 -18 -3 0 3 -7 1 -15 -6 -20 -16 -19 -46 1
-54 51 -20 127 17 105 52 -10 16 -54 23 -73 11z" id="node1" class="node" fill="#168040"></path>
<path style="position: relative; fill: rgb(22, 128, 59);" d="M1190 2810 c0 -6 -6 -10 -12 -9 -21 4 -68 -12 -68 -23 0 -5 -20 -18
-45 -29 -25 -11 -45 -25 -45 -30 0 -12 30 -4 73 18 39 19 34 0 -11 -45 -56
-56 -63 -106 -21 -160 16 -21 16 -24 -14 -80 -16 -31 -39 -65 -49 -75 -32 -32
-18 -87 23 -87 10 0 25 10 33 22 14 19 16 20 22 4 4 -9 4 -34 1 -55 -5 -37 -3
-39 25 -45 39 -8 256 -8 286 0 21 6 22 11 22 100 l0 93 -34 7 c-19 3 -94 4
-165 3 -72 -2 -131 -3 -131 -3 0 1 7 18 16 39 13 32 18 36 41 30 58 -14 80
-15 130 -3 36 9 50 17 45 25 -6 9 -19 9 -51 2 -75 -17 -153 7 -172 52 -17 41
2 101 41 129 76 54 230 39 246 -24 9 -37 2 -57 -28 -79 -37 -27 -44 -17 -26
37 8 25 12 49 9 53 -3 5 -31 9 -62 10 -65 3 -114 -23 -137 -70 -17 -34 -10
-54 22 -68 19 -9 31 -8 56 5 29 14 33 14 48 0 11 -12 26 -14 56 -9 53 8 83 28
102 69 15 30 15 36 0 64 -9 18 -26 38 -39 46 -30 19 -123 40 -144 32 -12 -5
-13 -3 -5 7 16 19 3 57 -19 57 -11 0 -19 -5 -19 -10z m80 -170 c0 -20 -68 -72
-82 -63 -26 15 21 83 58 83 17 0 24 -6 24 -20z m-190 -276 c0 -8 -4 -14 -10
-14 -5 0 -10 9 -10 21 0 11 5 17 10 14 6 -3 10 -13 10 -21z m75 -14 c10 -11
16 -20 13 -20 -3 0 -13 9 -23 20 -10 11 -16 20 -13 20 3 0 13 -9 23 -20z m159
-34 c-3 -8 -13 -17 -22 -21 -13 -5 -13 -2 3 15 21 24 26 25 19 6z m-119 -6 c3
-5 1 -10 -4 -10 -6 0 -11 5 -11 10 0 6 2 10 4 10 3 0 8 -4 11 -10z m69 -41
c-6 -11 -31 -12 -37 -1 -3 4 6 8 19 8 13 1 21 -2 18 -7z" id="node2" class="node" fill="#16803b"></path>
<path style="position: relative; fill: rgb(20, 145, 45);" d="M1380 2805 c0 -8 9 -15 20 -15 21 0 95 -91 102 -125 5 -28 38 -32 38
-6 0 28 36 28 43 0 9 -33 31 -17 44 32 6 24 16 58 21 75 14 46 0 54 -90 54
-85 0 -104 -12 -80 -51 24 -38 11 -32 -19 9 -21 29 -38 42 -55 42 -15 0 -24
-6 -24 -15z" id="node3" class="node" fill="#14912d"></path>
<path style="position: relative; fill: rgb(17, 133, 71);" d="M1720 2775 c7 -8 9 -16 4 -17 -5 0 -13 -2 -19 -3 -5 -2 -16 -3 -23
-4 -9 -1 -12 -13 -10 -38 3 -35 5 -38 43 -45 22 -3 59 -4 83 -1 41 6 42 6 42
44 0 35 -3 39 -26 39 -21 0 -24 3 -19 23 6 21 6 21 -14 -3 l-20 -25 -21 23
c-23 24 -40 31 -20 7z m104 -44 c4 -5 3 -16 0 -25 -5 -12 -20 -16 -65 -16 -56
0 -59 1 -59 25 0 24 3 25 59 25 33 0 62 -4 65 -9z" id="node4" class="node" fill="#118547"></path>
<path style="position: relative; fill: rgb(25, 133, 72);" d="M1881 2722 c-13 -24 8 -56 53 -83 17 -10 25 -19 18 -19 -7 0 -10 -5
-7 -10 4 -6 -14 0 -39 12 -25 12 -48 19 -51 16 -10 -9 29 -68 45 -68 12 0 12
-2 2 -9 -11 -6 -11 -17 -3 -45 6 -24 6 -47 0 -63 -17 -46 -12 -53 36 -53 49 0
61 13 65 65 4 55 0 72 -20 95 -25 29 -25 31 4 17 32 -15 47 -80 30 -128 -17
-47 -17 -49 10 -49 34 0 66 44 66 89 0 31 -7 44 -45 79 -25 23 -53 42 -63 42
-12 0 -10 4 8 13 41 21 33 56 -20 88 -54 33 -76 35 -89 11z m47 -19 c10 -10
27 -23 38 -29 10 -7 16 -15 12 -19 -10 -11 -90 43 -83 55 8 14 12 13 33 -7z" id="node5" class="node" fill="#198548"></path>
<path style="position: relative; fill: rgb(21, 138, 71);" d="M861 2690 c-53 -42 -64 -72 -33 -89 33 -17 142 52 142 90 0 17 -27
39 -48 39 -6 0 -33 -18 -61 -40z m63 -9 c7 -11 -74 -72 -86 -65 -16 10 -7 23
27 40 20 9 38 20 41 25 7 11 11 11 18 0z" id="node6" class="node" fill="#158a47"></path>
<path style="position: relative; fill: rgb(10, 122, 30);" d="M964 2645 c-22 -49 -33 -64 -46 -61 -21 5 -58 -20 -58 -39 0 -20 15
-27 45 -19 19 5 33 22 55 68 22 48 30 57 36 43 3 -10 1 -30 -7 -45 -7 -15 -15
-30 -17 -34 -10 -20 19 -5 34 17 13 19 15 37 9 80 -3 30 -10 55 -14 55 -5 0
-21 -29 -37 -65z" id="node7" class="node" fill="#0a7a1e"></path>
<path style="position: relative; fill: rgb(33, 128, 28);" d="M1757 2639 c-17 -10 -53 -69 -41 -69 4 0 2 -6 -4 -13 -12 -14 -15
-127 -3 -145 5 -9 31 -12 87 -10 l79 3 3 60 c4 84 -4 119 -37 154 -30 32 -53
38 -84 20z" id="node8" class="node" fill="#21801c"></path>
<path style="position: relative; fill: rgb(17, 112, 28);" d="M1675 2623 c-16 -8 -45 -31 -62 -51 -27 -29 -33 -44 -33 -78 0 -24 5
-55 12 -69 10 -21 18 -25 56 -25 l45 0 -8 38 c-4 20 -6 44 -5 52 0 8 2 29 3
45 1 17 4 32 7 35 9 8 40 59 40 65 0 9 -25 4 -55 -12z" id="node9" class="node" fill="#11701c"></path>
<path style="position: relative; fill: rgb(34, 133, 19);" d="M1585 2606 c-49 -21 -93 -78 -93 -120 0 -45 31 -86 64 -86 27 0 29
11 10 55 -11 25 -11 36 2 69 9 22 29 52 46 67 34 31 22 37 -29 15z" id="node10" class="node" fill="#228513"></path>
<path style="position: relative; fill: rgb(29, 120, 15);" d="M746 2540 c-21 -33 -42 -60 -46 -60 -4 0 -13 7 -20 15 -15 18 -40 20
-40 2 0 -21 57 -70 74 -64 22 9 105 137 99 153 -10 26 -28 13 -67 -46z" id="node11" class="node" fill="#1d780f"></path>
<path style="position: relative; fill: rgb(23, 117, 21);" d="M2066 2585 c-3 -9 18 -34 60 -72 l64 -57 -25 -26 c-23 -24 -24 -28
-10 -40 14 -12 22 -8 58 28 l41 41 -39 36 c-72 66 -122 105 -132 105 -6 0 -13
-7 -17 -15z" id="node12" class="node" fill="#177515"></path>
<path style="position: relative; fill: rgb(10, 110, 25);" d="M1410 2551 c5 -11 15 -23 20 -26 17 -10 12 -48 -5 -41 -12 4 -15 -3
-15 -30 0 -33 2 -35 28 -32 15 2 27 8 27 15 0 6 3 15 8 19 15 15 6 44 -24 79
-34 38 -56 47 -39 16z" id="node13" class="node" fill="#0a6e19"></path>
<path style="position: relative; fill: rgb(16, 112, 12);" d="M824 2475 c4 -11 -2 -15 -24 -15 -28 0 -57 -29 -43 -44 3 -3 53 -6
110 -6 78 0 103 3 103 13 0 21 -22 37 -52 37 -20 0 -26 4 -22 15 5 12 -3 15
-36 15 -33 0 -41 -3 -36 -15z" id="node14" class="node" fill="#10700c"></path>
<path style="position: relative; fill: rgb(37, 117, 17);" d="M2235 2385 c-8 -14 -21 -35 -29 -48 -8 -13 -11 -29 -7 -36 5 -7 -1
-32 -12 -56 -15 -32 -27 -44 -48 -49 -33 -6 -49 -47 -29 -72 10 -11 10 -18 2
-26 -7 -7 -12 -33 -12 -60 0 -37 4 -50 19 -58 30 -16 157 -13 174 4 10 11 23
13 43 7 26 -7 29 -12 32 -56 3 -47 16 -70 34 -59 14 9 9 104 -5 110 -8 3 -11
18 -9 44 5 47 -12 73 -40 64 -11 -3 -30 -3 -42 0 -19 5 -22 11 -18 31 7 37
-15 58 -54 52 -17 -3 -36 -1 -41 4 -13 13 28 99 47 99 8 0 24 21 35 47 11 26
21 50 23 53 1 4 -9 12 -23 18 -22 10 -27 9 -40 -13z m-20 -275 c3 -5 -1 -10
-9 -10 -9 0 -16 5 -16 10 0 6 4 10 9 10 6 0 13 -4 16 -10z" id="node15" class="node" fill="#257511"></path>
<path style="position: relative; fill: rgb(13, 92, 7);" d="M657 2382 c-10 -10 -14 -26 -11 -39 5 -18 1 -23 -20 -29 -14 -3 -23
-10 -20 -15 10 -17 30 -9 70 25 l39 35 -21 21 c-20 20 -21 20 -37 2z" id="node16" class="node" fill="#0d5c07"></path>
<path style="position: relative; fill: rgb(16, 110, 20);" d="M754 2385 c-4 -9 -4 -58 -2 -110 2 -52 1 -95 -3 -95 -4 0 -12 7 -19
15 -28 34 -112 7 -124 -40 -5 -19 -14 -24 -44 -27 l-37 -3 0 -65 0 -65 100 0
100 0 0 65 0 65 -47 3 c-55 4 -63 22 -23 48 32 21 71 7 85 -31 6 -15 15 -23
21 -20 6 4 8 14 4 22 -4 13 -3 14 10 3 8 -7 13 -21 10 -30 -11 -35 61 -70 80
-40 3 6 1 10 -6 10 -11 0 -38 28 -39 40 0 3 22 3 50 2 42 -3 53 0 75 22 24 24
25 31 25 136 l0 110 -105 0 c-86 0 -107 -3 -111 -15z m56 -115 c0 -60 -4 -100
-10 -100 -6 0 -10 40 -10 100 0 60 4 100 10 100 6 0 10 -40 10 -100z m60 0 c0
-60 -4 -100 -10 -100 -6 0 -10 40 -10 100 0 60 4 100 10 100 6 0 10 -40 10
-100z m60 0 c0 -60 -4 -100 -10 -100 -6 0 -10 40 -10 100 0 60 4 100 10 100 6
0 10 -40 10 -100z m-276 -206 c13 -13 14 -19 4 -37 -13 -22 -13 -22 -16 6 -4
35 -32 37 -32 2 0 -31 -16 -33 -26 -3 -4 15 -1 25 12 35 23 17 39 16 58 -3z" id="node17" class="node" fill="#106e14"></path>
<path style="position: relative; fill: rgb(9, 110, 19);" d="M1516 2383 c-82 -5 -92 -19 -90 -118 2 -96 15 -115 77 -115 43 0 43
0 39 -34 -3 -23 3 -45 20 -70 19 -30 28 -36 53 -34 44 4 45 37 0 99 -27 38
-34 56 -29 72 5 12 7 29 5 39 -1 9 3 19 9 23 16 10 12 81 -5 95 -24 20 -17 30
12 19 14 -5 32 -8 39 -5 7 3 27 -2 44 -11 39 -19 47 -12 25 21 -13 20 -26 26
-51 26 -34 0 -46 -14 -21 -23 7 -4 8 -6 1 -6 -6 -1 -17 6 -24 14 -7 8 -20 14
-29 13 -9 -1 -43 -3 -75 -5z m70 -269 c-3 -7 4 -24 15 -38 12 -15 15 -27 9
-31 -11 -7 -50 52 -50 77 0 12 5 15 16 11 8 -3 13 -11 10 -19z" id="node18" class="node" fill="#096e13"></path>
<path style="position: relative; fill: rgb(28, 128, 23);" d="M1720 2381 c0 -14 59 -61 76 -61 16 0 64 47 64 61 0 5 -31 9 -70 9
-38 0 -70 -4 -70 -9z" id="node19" class="node" fill="#1c8017"></path>
<path style="position: relative; fill: rgb(18, 125, 25);" d="M1865 2364 c-22 -33 -14 -40 27 -23 18 8 37 12 43 11 14 -5 85 20 85
30 0 14 -43 9 -62 -9 -18 -16 -18 -16 -12 0 5 14 0 17 -29 17 -26 0 -39 -6
-52 -26z" id="node20" class="node" fill="#127d19"></path>
<path style="position: relative; fill: rgb(28, 120, 31);" d="M2059 2362 c-26 -17 -67 -57 -102 -99 -16 -18 -16 -24 -5 -42 24 -38
86 -20 146 42 38 39 41 81 7 103 -17 11 -24 11 -46 -4z m31 -50 c0 -4 -20 -27
-44 -51 -29 -29 -50 -42 -60 -38 -25 10 -19 36 11 48 15 6 36 19 46 30 18 19
47 26 47 11z" id="node21" class="node" fill="#1c781f"></path>
<path style="position: relative; fill: rgb(58, 128, 28);" d="M1665 2304 c-12 -12 -13 -19 -4 -30 6 -8 18 -14 26 -14 11 0 7 -9
-11 -31 -31 -36 -35 -101 -10 -137 11 -17 13 -26 5 -36 -17 -20 0 -28 24 -12
12 8 37 16 56 18 32 3 34 5 37 45 4 54 29 73 94 73 40 0 48 3 48 18 0 38 -32
52 -116 52 l-79 0 29 23 c17 14 26 29 22 35 -11 18 -102 15 -121 -4z" id="node22" class="node" fill="#3a801c"></path>
<path style="position: relative; fill: rgb(28, 110, 24);" d="M2286 2311 c-14 -5 -16 -10 -8 -15 7 -4 10 -11 7 -16 -3 -5 -1 -11 5
-15 5 -3 10 -19 10 -35 0 -17 7 -33 17 -39 10 -5 22 -24 28 -42 15 -42 39 -53
29 -12 -4 15 -11 34 -17 41 -6 8 -6 17 2 26 10 12 8 26 -6 65 -18 51 -28 58
-67 42z" id="node23" class="node" fill="#1c6e18"></path>
<path style="position: relative; fill: rgb(16, 110, 19);" d="M526 2294 c-22 -21 -20 -51 3 -64 32 -17 177 -13 195 6 29 29 13 74
-26 74 -11 0 -18 -7 -18 -20 0 -17 -7 -20 -49 -20 -41 0 -51 4 -56 20 -8 24
-28 26 -49 4z" id="node24" class="node" fill="#106e13"></path>
<path style="position: relative; fill: rgb(19, 122, 16);" d="M1028 2183 c-21 -5 -31 -37 -26 -84 l3 -34 118 -3 117 -3 0 56 c0 36
-4 57 -12 59 -22 7 -182 14 -200 9z m62 -33 c0 -5 -9 -10 -20 -10 -11 0 -20 5
-20 10 0 6 9 10 20 10 11 0 20 -4 20 -10z m114 -8 c3 -5 -9 -6 -26 -4 -29 4
-30 3 -26 -21 3 -15 1 -24 -3 -21 -11 6 -12 38 -2 47 9 10 51 9 57 -1z" id="node25" class="node" fill="#137a10"></path>
<path style="position: relative; fill: rgb(29, 130, 22);" d="M1817 2152 c-12 -13 -17 -37 -17 -80 0 -81 15 -92 128 -92 58 0 90
-5 106 -16 15 -9 27 -11 30 -5 4 5 2 12 -4 16 -7 4 -5 14 5 28 9 12 15 43 15
72 0 41 -5 56 -23 73 -21 20 -34 22 -124 22 -84 0 -103 -3 -116 -18z" id="node26" class="node" fill="#1d8216"></path>
<path style="position: relative; fill: rgb(28, 120, 22);" d="M1293 2098 c-37 -28 -92 -69 -120 -91 -53 -40 -67 -70 -37 -81 19 -7
25 -4 84 43 70 56 80 64 80 59 0 -3 -31 -29 -70 -59 l-69 -54 -1 -101 c0 -118
9 -134 78 -134 l41 0 -24 -25 c-32 -31 -31 -48 2 -79 22 -20 25 -28 15 -38
-15 -15 -16 -60 0 -76 10 -10 7 -16 -10 -28 -40 -28 -60 -55 -67 -90 -8 -46
-1 -54 51 -54 32 0 44 4 45 15 3 27 4 30 27 60 l22 30 -22 -48 c-22 -48 -23
-49 -4 -63 11 -8 36 -14 55 -14 l36 0 -33 -20 c-18 -11 -37 -32 -42 -46 -12
-32 -13 -84 -1 -84 5 0 11 -9 14 -20 3 -12 14 -20 26 -20 18 0 21 6 21 40 0
33 -3 40 -20 40 -27 0 -26 31 3 58 31 29 72 28 102 -3 30 -29 32 -55 5 -55
-17 0 -20 -7 -20 -40 0 -33 3 -40 20 -40 13 0 20 7 20 20 0 11 5 20 10 20 6 0
10 20 10 44 0 37 -5 48 -34 74 l-34 30 39 6 c34 5 39 10 39 33 0 32 -38 91
-64 99 -13 4 -15 9 -7 17 20 20 12 71 -15 90 -23 17 -27 18 -49 3 -19 -12 -25
-26 -27 -54 -1 -36 -1 -36 -5 -5 -2 18 1 42 7 54 10 18 9 25 -8 42 -11 11 -37
23 -58 26 -21 3 -39 13 -41 21 -3 10 -2 11 4 4 10 -14 74 -16 90 -2 7 6 13 21
13 35 0 18 -9 28 -35 39 -30 12 -35 19 -35 46 l0 33 30 -36 c16 -20 43 -42 60
-49 17 -7 30 -18 29 -24 -3 -28 6 -42 80 -117 l79 -79 -19 -24 c-31 -40 -25
-99 14 -143 29 -31 41 -37 88 -40 66 -5 113 16 147 67 33 49 25 101 -21 148
-31 31 -41 35 -90 36 -30 0 -61 -5 -69 -12 -12 -10 -19 -7 -34 14 -54 75 -127
153 -151 162 -42 15 -83 59 -83 88 0 21 4 24 20 19 18 -6 20 -2 20 36 0 41 0
41 -31 35 -17 -3 -36 -6 -41 -6 -6 0 -8 -6 -5 -14 3 -8 -1 -22 -8 -33 -13 -17
-14 -16 -15 10 0 50 16 67 64 67 24 0 48 -6 54 -13 6 -7 12 -46 14 -87 l3 -75
67 1 c60 0 68 -2 74 -20 4 -12 12 -24 18 -28 6 -4 72 -8 147 -8 119 0 138 2
152 18 34 38 14 90 -41 107 -19 5 -24 2 -33 -25 l-11 -31 -72 3 c-64 3 -71 5
-74 25 -4 27 -25 35 -57 23 l-25 -10 0 79 c0 65 -4 83 -22 106 l-22 28 27 -17
c58 -39 65 19 8 65 -33 26 -40 38 -43 73 -3 34 -7 42 -26 44 -17 3 -25 -2 -29
-17 -5 -19 -8 -18 -51 14 -24 19 -48 35 -53 35 -4 0 -39 -23 -76 -52z m128
-55 c27 -20 49 -39 49 -41 0 -5 -22 9 -63 42 l-37 30 -33 -23 -32 -22 28 25
c15 14 31 26 34 26 3 0 28 -17 54 -37z m90 -70 c13 -15 12 -15 -8 -4 -24 12
-29 21 -14 21 5 0 15 -7 22 -17z m-171 -318 c6 -8 10 -20 7 -27 -4 -8 -6 -7
-6 5 -1 9 -3 17 -5 17 -2 0 -11 3 -19 6 -8 3 -24 -5 -36 -17 -12 -13 -21 -18
-21 -12 0 18 29 43 49 43 10 0 24 -7 31 -15z m428 -214 c42 -39 44 -87 4 -132
-69 -77 -202 -40 -202 57 0 91 127 139 198 75z" id="node27" class="node" fill="#1c7816"></path>
<path style="position: relative; fill: rgb(33, 140, 21);" d="M1598 1383 c-6 -7 -8 -20 -4 -28 5 -13 22 -15 93 -13 80 3 88 5 88
23 0 18 -8 20 -83 25 -60 4 -87 1 -94 -7z" id="node28" class="node" fill="#218c15"></path>
<path style="position: relative; fill: rgb(30, 115, 31);" d="M470 2071 c0 -39 -9 -61 -25 -61 -8 0 -14 -20 -18 -57 -2 -32 -4 -59
-3 -60 1 -1 15 -3 31 -5 27 -3 30 -1 27 24 -2 14 2 29 7 33 13 7 15 55 2 55
-4 0 -6 23 -3 50 3 33 1 50 -7 50 -6 0 -11 -13 -11 -29z" id="node29" class="node" fill="#1e731f"></path>
<path style="position: relative; fill: rgb(29, 153, 35);" d="M909 2073 c-1 -5 -1 -12 0 -17 1 -5 -20 -6 -46 -3 -47 5 -48 5 -26
-13 l22 -18 -38 -6 c-46 -7 -61 -34 -61 -109 1 -88 31 -107 171 -107 66 0 96
-4 115 -16 28 -19 43 -12 24 11 -11 13 -10 19 6 36 14 16 19 36 19 85 0 88
-12 98 -122 104 l-87 5 41 20 c23 11 39 23 37 27 -7 10 -54 10 -55 1z m116
-111 c-6 -5 -53 -6 -105 -2 l-95 7 104 1 c58 1 101 -2 96 -6z m5 -42 c0 -6
-40 -10 -100 -10 -60 0 -100 4 -100 10 0 6 40 10 100 10 60 0 100 -4 100 -10z
m-10 -50 c0 -6 -38 -10 -95 -10 -57 0 -95 4 -95 10 0 6 38 10 95 10 57 0 95
-4 95 -10z" id="node30" class="node" fill="#1d9923"></path>
<path style="position: relative; fill: rgb(24, 130, 26);" d="M1692 2024 c-12 -8 -22 -26 -22 -40 0 -29 33 -64 60 -64 12 0 39 -20
63 -47 79 -87 76 -84 97 -73 11 6 20 16 20 23 0 7 -27 41 -60 77 -33 36 -60
74 -60 86 0 26 -30 54 -56 54 -11 0 -30 -7 -42 -16z" id="node31" class="node" fill="#18821a"></path>
<path style="position: relative; fill: rgb(16, 120, 26);" d="M2317 1953 c-12 -11 -7 -60 6 -72 19 -15 27 -4 27 41 0 36 -15 50
-33 31z" id="node32" class="node" fill="#10781a"></path>
<path style="position: relative; fill: rgb(49, 115, 21);" d="M520 1930 c-22 -22 -24 -37 -11 -73 8 -21 6 -26 -9 -30 -21 -5 -60
-63 -60 -89 0 -19 28 -38 48 -31 7 3 22 27 33 53 l21 49 32 -22 c17 -12 33
-23 36 -25 3 -2 -7 -13 -23 -24 -28 -21 -36 -55 -15 -76 9 -9 4 -12 -26 -12
-30 0 -37 -3 -34 -17 3 -14 12 -17 38 -15 28 3 33 1 23 -9 -16 -16 -17 -61 -1
-77 18 -18 53 -15 71 6 22 24 21 40 0 65 -18 20 -17 20 12 14 17 -3 37 -2 44
3 21 12 3 30 -32 30 -24 0 -28 3 -19 12 18 18 15 41 -8 65 -20 22 -20 22 0 28
11 4 29 3 40 0 16 -5 20 -2 20 18 0 14 7 27 15 31 23 9 18 23 -11 30 -20 5
-24 10 -15 19 17 17 13 62 -7 80 -22 20 -36 21 -62 5 -16 -10 -24 -10 -40 0
-27 17 -37 15 -60 -8z m0 -130 c0 -5 -4 -10 -8 -10 -5 0 -15 -12 -22 -27 -7
-16 -15 -23 -17 -16 -2 6 3 23 13 37 17 26 34 34 34 16z m108 -103 c4 -22 -27
-35 -38 -16 -10 15 7 42 24 36 6 -2 12 -11 14 -20z m-3 -117 c4 -6 1 -18 -6
-26 -11 -13 -14 -13 -27 0 -8 8 -11 19 -8 25 9 14 33 14 41 1z" id="node33" class="node" fill="#317315"></path>
<path style="position: relative; fill: rgb(22, 128, 32);" d="M2115 1898 l-26 -33 7 28 6 27 -92 0 -93 0 8 -37 c4 -21 7 -46 6 -56
0 -10 4 -30 9 -43 12 -30 50 -33 50 -4 0 13 7 20 19 20 12 0 18 -7 17 -17 0
-12 7 -19 22 -21 18 -3 22 1 22 22 0 14 4 26 10 26 5 0 25 22 42 50 23 34 40
50 55 50 12 0 25 5 28 10 4 6 -8 10 -29 10 -27 0 -40 -7 -61 -32z m-155 -8 c0
-5 -4 -10 -10 -10 -5 0 -10 5 -10 10 0 6 5 10 10 10 6 0 10 -4 10 -10z m60 6
c0 -3 -4 -8 -10 -11 -5 -3 -10 -1 -10 4 0 6 5 11 10 11 6 0 10 -2 10 -4z m50
-6 c0 -5 -2 -10 -4 -10 -3 0 -8 5 -11 10 -3 6 -1 10 4 10 6 0 11 -4 11 -10z
m-100 -40 c0 -5 -4 -10 -10 -10 -5 0 -10 5 -10 10 0 6 5 10 10 10 6 0 10 -4
10 -10z m50 0 c0 -5 -4 -10 -10 -10 -5 0 -10 5 -10 10 0 6 5 10 10 10 6 0 10
-4 10 -10z m40 0 c0 -5 -4 -10 -10 -10 -5 0 -10 5 -10 10 0 6 5 10 10 10 6 0
10 -4 10 -10z" id="node34" class="node" fill="#168020"></path>
<path style="position: relative; fill: rgb(14, 125, 14);" d="M2262 1903 c2 -17 9 -28 18 -28 9 0 16 11 18 28 3 22 -1 27 -18 27
-17 0 -21 -5 -18 -27z" id="node35" class="node" fill="#0e7d0e"></path>
<path style="position: relative; fill: rgb(22, 133, 22);" d="M1610 1860 c0 -5 11 -10 24 -10 48 0 100 -68 64 -83 -9 -4 -4 -14 15
-31 l28 -26 28 27 28 28 -31 33 c-17 18 -45 42 -62 53 -33 20 -94 26 -94 9z" id="node36" class="node" fill="#168516"></path>
<path style="position: relative; fill: rgb(26, 130, 52);" d="M2162 1853 c-12 -2 -22 -10 -21 -16 1 -7 -1 -25 -6 -40 -5 -18 -3
-33 4 -40 6 -6 11 -13 11 -16 0 -4 -46 -5 -102 -3 -57 1 -108 -1 -114 -5 -11
-8 -19 -164 -16 -290 l2 -53 60 0 60 0 0 43 c0 55 13 67 72 67 l47 0 3 111 3
111 24 -21 c26 -22 51 -28 51 -11 0 6 11 8 26 4 17 -4 29 -2 35 7 7 11 9 10 9
-3 0 -10 6 -18 13 -17 31 3 60 16 63 29 2 8 6 27 10 43 5 22 0 34 -34 67 -22
22 -48 40 -58 40 -15 0 -12 -6 14 -26 23 -19 32 -34 32 -55 0 -25 -3 -29 -19
-24 -14 4 -21 0 -24 -12 -3 -10 -5 -2 -6 18 -1 45 -29 83 -54 74 -9 -4 -18
-17 -18 -29 -1 -11 -4 -5 -8 14 -6 36 -16 41 -59 33z m108 -85 c0 -32 -3 -39
-10 -28 -13 20 -13 70 0 70 6 0 10 -19 10 -42z m-52 5 c16 -31 23 -73 13 -73
-18 0 -51 43 -51 67 0 27 25 31 38 6z m-83 -93 c4 -6 -28 -10 -89 -10 -57 0
-96 4 -96 10 0 6 36 10 89 10 50 0 93 -4 96 -10z m-5 -60 c0 -6 -37 -10 -90
-10 -53 0 -90 4 -90 10 0 6 37 10 90 10 53 0 90 -4 90 -10z m-78 -60 c28 0 49
-3 45 -6 -8 -8 -128 -15 -139 -8 -14 9 13 25 30 19 8 -3 37 -5 64 -5z" id="node37" class="node" fill="#1a8234"></path>
<path style="position: relative; fill: rgb(17, 115, 19);" d="M825 1750 c-37 -12 -95 -63 -95 -85 0 -31 21 -55 73 -82 44 -23 64
-27 137 -27 70 0 94 5 135 25 28 13 56 36 65 52 13 24 13 30 0 54 -28 50 -74
67 -185 70 -55 1 -113 -2 -130 -7z m141 -15 c18 -13 17 -14 -18 -15 -37 0 -51
13 -25 23 19 8 22 8 43 -8z m-81 -5 c-3 -5 -14 -10 -23 -10 -15 0 -15 2 -2 10
20 13 33 13 25 0z m135 0 c13 -8 13 -10 -2 -10 -9 0 -20 5 -23 10 -8 13 5 13
25 0z m-230 -45 c0 -8 -7 -15 -15 -15 -26 0 -18 20 13 29 1 1 2 -6 2 -14z m73
0 c1 -5 -11 -12 -27 -13 -27 -3 -28 -2 -16 13 14 17 40 17 43 0z m127 0 c0
-11 -12 -15 -50 -15 -38 0 -50 4 -50 15 0 11 12 15 50 15 38 0 50 -4 50 -15z
m78 -2 c2 -8 -6 -13 -22 -13 -17 0 -26 5 -26 16 0 19 41 16 48 -3z m50 -1 c2
-7 -3 -12 -12 -12 -9 0 -16 7 -16 16 0 17 22 14 28 -4z m-330 -51 c3 -8 -1
-12 -9 -9 -7 2 -15 10 -17 17 -3 8 1 12 9 9 7 -2 15 -10 17 -17z m80 2 c2 -8
-6 -13 -22 -13 -26 0 -40 12 -29 24 11 11 46 2 51 -11z m122 2 c0 -11 -12 -15
-50 -15 -38 0 -50 4 -50 15 0 11 12 15 50 15 38 0 50 -4 50 -15z m73 0 c-1 -5
-14 -11 -28 -13 -19 -3 -24 0 -19 13 7 17 51 17 47 0z m57 6 c0 -12 -20 -25
-27 -18 -7 7 6 27 18 27 5 0 9 -4 9 -9z m-240 -51 c0 -5 -4 -10 -9 -10 -6 0
-13 5 -16 10 -3 6 1 10 9 10 9 0 16 -4 16 -10z m90 1 c0 -17 -34 -22 -49 -6
-14 13 -12 15 17 15 18 0 32 -4 32 -9z m55 -1 c-3 -5 -10 -10 -16 -10 -5 0 -9
5 -9 10 0 6 7 10 16 10 8 0 12 -4 9 -10z" id="node38" class="node" fill="#117313"></path>
<path style="position: relative; fill: rgb(30, 117, 19);" d="M2288 1633 c-22 -5 -41 -36 -62 -100 -20 -59 -15 -89 16 -98 27 -9
85 46 99 95 21 71 -1 114 -53 103z m27 -53 c12 -19 -44 -129 -66 -130 -15 0
-19 35 -6 45 7 5 22 29 32 53 19 42 29 50 40 32z" id="node39" class="node" fill="#1e7513"></path>
<path style="position: relative; fill: rgb(28, 99, 12);" d="M1177 1613 c-4 -3 -7 -39 -7 -79 0 -57 3 -73 16 -78 30 -12 44 13 44
78 0 60 -11 86 -35 86 -7 0 -15 -3 -18 -7z" id="node40" class="node" fill="#1c630c"></path>
<path style="position: relative; fill: rgb(30, 130, 52);" d="M1684 1606 c-3 -8 -4 -31 -2 -52 3 -38 4 -39 48 -44 25 -3 50 -9 56
-13 17 -10 29 90 13 109 -16 19 -108 19 -115 0z" id="node41" class="node" fill="#1e8234"></path>
<path style="position: relative; fill: rgb(26, 105, 14);" d="M1095 1568 c-3 -7 -4 -35 -2 -63 2 -43 5 -50 22 -50 16 0 21 9 27 45
3 25 4 53 1 63 -5 20 -41 23 -48 5z" id="node42" class="node" fill="#1a690e"></path>
<path style="position: relative; fill: rgb(22, 122, 25);" d="M720 1563 c-8 -3 -30 -19 -47 -36 -27 -25 -33 -39 -33 -72 0 -28 7
-48 20 -63 42 -45 65 -53 133 -49 35 2 69 7 76 11 20 13 52 89 41 100 -7 7
-10 4 -11 -9 -1 -11 -5 -2 -10 19 -19 79 -98 125 -169 99z m90 -77 c30 -37
-13 -88 -65 -78 -28 5 -40 32 -31 68 5 20 12 24 45 24 21 0 44 -6 51 -14z" id="node43" class="node" fill="#167a19"></path>
<path style="position: relative; fill: rgb(21, 122, 29);" d="M1832 1558 c-7 -7 -12 -16 -12 -22 0 -6 5 -5 12 2 7 7 22 12 35 12
13 0 23 5 23 10 0 14 -43 13 -58 -2z" id="node44" class="node" fill="#157a1d"></path>
<path style="position: relative; fill: rgb(12, 107, 39);" d="M929 1509 c-11 -27 -10 -33 4 -41 23 -12 21 -30 -4 -62 -23 -29 -19
-47 6 -26 13 11 15 8 15 -24 0 -20 5 -44 11 -54 9 -15 5 -25 -27 -61 -22 -23
-47 -56 -57 -72 -18 -27 -18 -29 -1 -36 17 -6 28 3 99 88 27 33 34 36 71 32
37 -4 40 -7 36 -29 -2 -13 -9 -24 -14 -24 -5 0 -8 -28 -6 -62 l3 -63 88 -3
c52 -2 87 -7 87 -13 0 -7 -17 -9 -49 -4 -30 4 -51 3 -55 -4 -4 -6 13 -13 40
-17 33 -5 48 -12 51 -25 3 -10 8 -17 12 -15 3 2 28 0 55 -5 27 -5 50 -8 52 -6
1 1 5 14 9 30 7 25 5 27 -23 27 -17 0 -34 5 -37 10 -3 6 -16 10 -28 10 -16 0
-18 3 -9 12 18 18 16 124 -3 132 -8 3 -15 14 -15 24 0 28 -34 54 -73 55 -33 1
-33 2 -23 28 17 45 -3 100 -44 124 -31 18 -35 25 -35 60 0 33 -3 40 -20 40
-17 0 -20 -7 -20 -41 0 -35 -5 -44 -27 -57 l-27 -15 -7 54 c-8 65 -17 74 -35
33z m171 -104 c27 -29 32 -83 11 -109 -20 -24 -41 -20 -41 8 0 18 6 25 23 28
12 2 22 10 22 18 0 8 -10 16 -22 18 -17 3 -23 10 -23 28 0 17 -5 24 -20 24
-15 0 -20 -7 -20 -24 0 -18 -6 -25 -22 -28 -29 -4 -30 -32 -2 -36 14 -2 24
-12 27 -28 8 -46 -42 -18 -57 32 -22 72 72 124 124 69z m110 -164 c18 -35 12
-41 -45 -41 -46 0 -55 3 -55 18 0 27 20 42 57 42 22 0 36 -6 43 -19z m-9 -102
c9 -17 8 -25 -5 -37 -15 -15 -16 -14 -16 11 0 17 -5 27 -15 27 -10 0 -15 -10
-15 -26 0 -22 -2 -25 -15 -14 -19 16 -19 25 1 44 22 22 51 20 65 -5z" id="node45" class="node" fill="#0c6b27"></path>
<path style="position: relative; fill: rgb(24, 125, 54);" d="M1865 1500 c-3 -5 -1 -10 4 -10 6 0 11 5 11 10 0 6 -2 10 -4 10 -3 0
-8 -4 -11 -10z" id="node46" class="node" fill="#187d36"></path>
<path style="position: relative; fill: rgb(22, 115, 39);" d="M1884 1479 c-3 -6 -17 -8 -30 -5 -14 4 -24 2 -24 -4 0 -11 39 -14 64
-4 9 3 16 10 16 15 0 13 -17 11 -26 -2z" id="node47" class="node" fill="#167327"></path>
<path style="position: relative; fill: rgb(8, 130, 22);" d="M2067 1483 c-8 -7 -10 -103 -2 -103 9 0 105 94 105 102 0 10 -94 11
-103 1z" id="node48" class="node" fill="#088216"></path>
<path style="position: relative; fill: rgb(29, 122, 21);" d="M2131 1356 c-26 -26 -40 -49 -36 -56 4 -7 -6 -25 -25 -45 -17 -18
-28 -35 -22 -39 5 -3 22 8 37 24 16 17 36 30 44 30 16 0 81 71 81 88 0 5 -8
16 -18 25 -17 16 -21 14 -61 -27z" id="node49" class="node" fill="#1d7a15"></path>
<path style="position: relative; fill: rgb(21, 125, 30);" d="M1953 1315 l-29 -35 -29 30 c-32 33 -53 38 -62 14 -3 -9 6 -28 26
-48 l32 -33 -30 -37 c-25 -31 -28 -42 -20 -57 7 -15 6 -21 -6 -25 -8 -3 -12
-10 -9 -15 3 -6 -5 -7 -20 -3 -21 5 -26 3 -26 -12 0 -13 -15 -25 -43 -38 -52
-22 -31 -34 23 -12 29 11 40 12 43 3 3 -9 9 -7 23 5 10 9 32 20 47 24 36 8 44
27 24 57 -14 22 -14 26 7 52 l22 28 25 -30 c33 -40 47 -47 64 -33 13 11 10 18
-20 52 -37 40 -37 57 -1 88 20 16 20 34 2 49 -11 9 -20 5 -43 -24z" id="node50" class="node" fill="#157d1e"></path>
<path style="position: relative; fill: rgb(14, 112, 44);" d="M794 1316 c-4 -9 -1 -23 6 -31 10 -13 8 -15 -14 -15 -35 0 -34 -20 2
-21 15 0 21 -3 15 -6 -20 -7 -15 -37 8 -51 27 -17 52 2 46 35 -3 17 0 23 14
23 11 0 19 5 19 10 0 6 -9 10 -19 10 -15 0 -19 6 -18 28 2 23 -2 28 -26 30
-18 2 -29 -2 -33 -12z m36 -16 c0 -5 -4 -10 -10 -10 -5 0 -10 5 -10 10 0 6 5
10 10 10 6 0 10 -4 10 -10z m0 -86 c0 -8 -4 -12 -10 -9 -5 3 -10 10 -10 16 0
5 5 9 10 9 6 0 10 -7 10 -16z" id="node51" class="node" fill="#0e702c"></path>
<path style="position: relative; fill: rgb(77, 39, 161); stroke: none;" d="M454 1235 c-4 -8 -3 -23 1 -32 4 -12 -4 -8 -24 11 -16 15 -34 25 -40
22 -18 -11 -13 -69 9 -111 12 -22 46 -103 76 -180 72 -186 95 -232 138 -282
54 -62 110 -90 240 -117 63 -14 128 -31 143 -38 l28 -13 0 -110 c0 -69 -5
-126 -14 -153 -20 -60 -10 -72 85 -104 96 -33 152 -35 186 -9 23 19 25 28 34
158 5 76 9 192 9 258 0 111 -2 124 -28 178 -32 67 -89 128 -144 155 -21 10
-81 31 -133 47 -82 25 -105 37 -173 92 -85 69 -113 78 -123 38 -16 -63 20
-119 120 -188 37 -25 33 -41 -8 -34 -61 10 -82 33 -141 153 -62 125 -97 174
-125 174 -11 0 -31 20 -51 50 -33 51 -55 62 -65 35z" id="node52" class="node" transform="" fill="#1a369c"></path>
<path style="position: relative; fill: rgb(27, 133, 21);" d="M1530 1243 c0 -6 9 -22 20 -35 10 -14 17 -27 15 -30 -3 -2 11 -20 30
-38 32 -31 37 -33 51 -19 14 14 12 19 -14 47 -17 18 -34 32 -38 32 -4 0 -21
12 -36 27 -15 15 -28 22 -28 16z" id="node53" class="node" fill="#1b8515"></path>
<path style="position: relative; fill: rgb(77, 39, 161);" d="M2362 1238 c-7 -7 -12 -16 -12 -20 0 -18 -44 -68 -60 -68 -28 0 -66
-52 -124 -172 -60 -122 -81 -145 -142 -155 -44 -7 -44 9 -1 38 93 64 129 122
113 184 -10 39 -37 31 -124 -39 -67 -53 -94 -67 -169 -90 -122 -36 -188 -72
-226 -120 -85 -109 -101 -181 -81 -379 7 -78 14 -172 14 -209 0 -60 3 -69 26
-87 16 -13 41 -21 64 -21 46 0 194 46 210 65 9 11 8 30 -5 82 -11 44 -15 99
-13 158 3 87 4 90 31 103 15 7 80 25 145 38 131 28 190 59 246 128 37 45 51
76 131 276 30 74 63 154 74 177 23 46 27 98 10 109 -6 3 -23 -6 -39 -21 -27
-26 -28 -26 -23 -5 8 32 -22 51 -45 28z" id="node54" class="node" fill="#161173"></path>
<path style="position: relative; fill: rgb(9, 92, 5);" d="M1724 1192 c-6 -4 -30 -33 -53 -65 l-43 -59 -22 21 c-26 24 -56 28
-56 7 0 -16 68 -76 85 -76 6 0 24 18 41 41 16 22 34 46 39 52 29 32 54 75 48
81 -8 8 -25 7 -39 -2z" id="node55" class="node" fill="#095c05"></path>
<path style="position: relative; fill: rgb(24, 128, 33);" d="M1424 1046 c-11 -28 3 -45 47 -56 48 -13 87 -6 96 16 10 26 -20 45
-80 51 -47 5 -58 3 -63 -11z m71 -21 c23 -10 26 -14 10 -14 -29 -1 -65 10 -65
20 0 13 20 10 55 -6z" id="node56" class="node" fill="#188021"></path>
</g>
<g transform="translate(0.000000,300.000000) scale(0.100000,-0.100000)" fill="#7A9AAB" stroke="none">

<path style="position: relative; fill: rgb(25, 25, 150);" d="M1201 2634 c-22 -27 -27 -49 -13 -57 14 -9 82 43 82 63 0 30 -44 26
-69 -6z" id="node58" class="node" fill="#191996" transform="scale(1) translate(-5,0) rotate(0 538.7592468261719 337.8020324707031)"></path>
<path style="position: relative; fill: rgb(29, 44, 156);" d="M1060 2371 c0 -12 5 -21 10 -21 6 0 10 6 10 14 0 8 -4 18 -10 21 -5
3 -10 -3 -10 -14z" id="node59" class="node" fill="#1d2c9c"></path>
<path style="position: relative; fill: rgb(24, 42, 148);" d="M1145 2350 c10 -11 20 -20 23 -20 3 0 -3 9 -13 20 -10 11 -20 20 -23
20 -3 0 3 -9 13 -20z" id="node60" class="node" fill="#182a94"></path>
<path style="position: relative; fill: rgb(23, 48, 161);" d="M1295 2310 c-16 -17 -16 -20 -3 -15 9 4 19 13 22 21 7 19 2 18 -19
-6z" id="node61" class="node" fill="#1730a1"></path>
<path style="position: relative; fill: rgb(21, 36, 166);" d="M1180 2310 c0 -5 5 -10 11 -10 5 0 7 5 4 10 -3 6 -8 10 -11 10 -2 0
-4 -4 -4 -10z" id="node62" class="node" fill="#1524a6"></path>
<path style="position: relative; fill: rgb(24, 30, 158);" d="M1227 2268 c6 -11 31 -10 37 1 3 5 -5 8 -18 7 -13 0 -22 -4 -19 -8z" id="node63" class="node" fill="#181e9e"></path>
<path style="position: relative; fill: rgb(33, 49, 166);" d="M1700 2715 c0 -24 3 -25 59 -25 45 0 60 4 65 16 10 27 -3 34 -65 34
-56 0 -59 -1 -59 -25z" id="node64" class="node" fill="#2131a6"></path>
<path style="position: relative; fill: rgb(32, 57, 168);" d="M1895 2710 c-7 -12 73 -66 83 -55 4 4 -2 12 -12 19 -11 6 -28 19 -38
29 -21 20 -25 21 -33 7z" id="node65" class="node" fill="#2039a8"></path>
<path style="position: relative; fill: rgb(35, 25, 168);" d="M906 2681 c-3 -5 -21 -16 -41 -25 -34 -17 -43 -30 -27 -40 12 -7 93
54 86 65 -7 11 -11 11 -18 0z" id="node66" class="node" fill="#2319a8"></path>
<path style="position: relative; fill: rgb(32, 22, 171);" d="M2190 2110 c0 -5 7 -10 16 -10 8 0 12 5 9 10 -3 6 -10 10 -16 10 -5
0 -9 -4 -9 -10z" id="node67" class="node" fill="#2016ab"></path>
<path style="position: relative; fill: rgb(28, 23, 166);" d="M790 2270 c0 -60 4 -100 10 -100 6 0 10 40 10 100 0 60 -4 100 -10
100 -6 0 -10 -40 -10 -100z" id="node68" class="node" fill="#1c17a6"></path>
<path style="position: relative; fill: rgb(25, 45, 148);" d="M850 2270 c0 -60 4 -100 10 -100 6 0 10 40 10 100 0 60 -4 100 -10
100 -6 0 -10 -40 -10 -100z" id="node69" class="node" fill="#192d94"></path>
<path style="position: relative; fill: rgb(22, 26, 145);" d="M910 2270 c0 -60 4 -100 10 -100 6 0 10 40 10 100 0 60 -4 100 -10
100 -6 0 -10 -40 -10 -100z" id="node70" class="node" fill="#161a91"></path>
<path style="position: relative; fill: rgb(45, 15, 153);" d="M596 2067 c-13 -10 -16 -20 -12 -35 10 -30 26 -28 26 3 0 35 28 33
32 -2 3 -28 3 -28 16 -6 10 18 9 24 -4 37 -19 19 -35 20 -58 3z" id="node71" class="node" fill="#2d0f99"></path>
<path style="position: relative; fill: rgb(18, 32, 145);" d="M1560 2122 c0 -25 39 -84 50 -77 6 4 3 16 -9 31 -11 14 -18 31 -15
38 3 8 -2 16 -10 19 -11 4 -16 1 -16 -11z" id="node72" class="node" fill="#122091"></path>
<path style="position: relative; fill: rgb(39, 15, 158);" d="M2043 2301 c-10 -11 -31 -24 -46 -30 -30 -12 -36 -38 -11 -48 10 -4
31 9 60 38 24 24 44 47 44 51 0 15 -29 8 -47 -11z" id="node73" class="node" fill="#270f9e"></path>
<path style="position: relative; fill: rgb(23, 21, 171);" d="M1050 2150 c0 -5 9 -10 20 -10 11 0 20 5 20 10 0 6 -9 10 -20 10 -11
0 -20 -4 -20 -10z" id="node74" class="node" fill="#1715ab"></path>
<path style="position: relative; fill: rgb(34, 12, 176);" d="M1147 2143 c-10 -9 -9 -41 2 -47 4 -3 6 6 3 21 -4 24 -3 25 26 21 17
-2 29 -1 26 4 -6 10 -48 11 -57 1z" id="node75" class="node" fill="#220cb0"></path>
<path style="position: relative; fill: rgb(12, 24, 135);" d="M1333 2054 l-28 -25 32 22 33 23 37 -30 c41 -33 63 -47 63 -42 0 6
-96 78 -103 78 -3 0 -19 -12 -34 -26z" id="node76" class="node" fill="#0c1887"></path>
<path style="position: relative; fill: rgb(42, 28, 168);" d="M1480 1985 c0 -2 10 -10 23 -16 20 -11 21 -11 8 4 -13 16 -31 23 -31
12z" id="node77" class="node" fill="#2a1ca8"></path>
<path style="position: relative; fill: rgb(13, 13, 115);" d="M1276 1654 c-9 -8 -16 -20 -16 -27 0 -6 9 -1 21 12 12 12 28 20 36
17 8 -3 17 -6 19 -6 2 0 4 -8 5 -17 0 -12 2 -13 6 -5 7 17 -15 42 -38 42 -9 0
-25 -7 -33 -16z" id="node78" class="node" fill="#0d0d73"></path>
<path style="position: relative; fill: rgb(15, 25, 138);" d="M1634 1460 c-56 -22 -81 -101 -48 -149 59 -83 214 -37 214 65 0 50
-49 94 -105 93 -22 0 -50 -4 -61 -9z m141 -95 c0 -18 -8 -20 -88 -23 -71 -2
-88 0 -93 13 -13 32 11 40 98 35 75 -5 83 -7 83 -25z" id="node79" class="node" fill="#0f198a"></path>
<path style="position: relative; fill: rgb(31, 12, 173);" d="M920 1960 c52 -4 99 -3 105 2 5 4 -38 7 -96 6 l-104 -1 95 -7z" id="node80" class="node" fill="#1f0cad"></path>
<path style="position: relative; fill: rgb(20, 44, 163);" d="M830 1920 c0 -6 40 -10 100 -10 60 0 100 4 100 10 0 6 -40 10 -100
10 -60 0 -100 -4 -100 -10z" id="node81" class="node" fill="#142ca3"></path>
<path style="position: relative; fill: rgb(17, 9, 176);" d="M830 1870 c0 -6 38 -10 95 -10 57 0 95 4 95 10 0 6 -38 10 -95 10
-57 0 -95 -4 -95 -10z" id="node82" class="node" fill="#1109b0"></path>
<path style="position: relative; fill: rgb(8, 25, 153);" d="M486 1784 c-10 -14 -15 -31 -13 -37 2 -7 10 0 17 16 7 15 17 27 22
27 4 0 8 5 8 10 0 18 -17 10 -34 -16z" id="node83" class="node" fill="#081999"></path>
<path style="position: relative; fill: rgb(46, 8, 158);" d="M592 1707 c-15 -17 1 -42 23 -33 18 6 17 37 -1 43 -6 2 -16 -2 -22
-10z" id="node84" class="node" fill="#2e089e"></path>
<path style="position: relative; fill: rgb(10, 26, 171);" d="M584 1579 c-3 -6 0 -17 8 -25 13 -13 16 -13 27 0 7 8 10 20 6 26 -8
13 -32 13 -41 -1z" id="node85" class="node" fill="#0a1aab"></path>
<path style="position: relative; fill: rgb(27, 12, 156);" d="M1940 1890 c0 -5 5 -10 10 -10 6 0 10 5 10 10 0 6 -4 10 -10 10 -5 0
-10 -4 -10 -10z" id="node86" class="node" fill="#1b0c9c"></path>
<path style="position: relative; fill: rgb(10, 26, 145);" d="M2000 1889 c0 -5 5 -7 10 -4 6 3 10 8 10 11 0 2 -4 4 -10 4 -5 0 -10
-5 -10 -11z" id="node87" class="node" fill="#0a1a91"></path>
<path style="position: relative; fill: rgb(5, 21, 148);" d="M2055 1890 c3 -5 8 -10 11 -10 2 0 4 5 4 10 0 6 -5 10 -11 10 -5 0
-7 -4 -4 -10z" id="node88" class="node" fill="#051594"></path>
<path style="position: relative; fill: rgb(19, 2, 176);" d="M1950 1850 c0 -5 5 -10 10 -10 6 0 10 5 10 10 0 6 -4 10 -10 10 -5 0
-10 -4 -10 -10z" id="node89" class="node" fill="#1302b0"></path>
<path style="position: relative; fill: rgb(6, 22, 161);" d="M2000 1850 c0 -5 5 -10 10 -10 6 0 10 5 10 10 0 6 -4 10 -10 10 -5 0
-10 -4 -10 -10z" id="node90" class="node" fill="#0616a1"></path>
<path style="position: relative; fill: rgb(5, 9, 94);" d="M2040 1850 c0 -5 5 -10 10 -10 6 0 10 5 10 10 0 6 -4 10 -10 10 -5 0
-10 -4 -10 -10z" id="node91" class="node" fill="#05095e"></path>
<path style="position: relative; fill: rgb(5, 36, 89);" d="M2250 1783 c0 -16 5 -35 10 -43 7 -11 10 -4 10 28 0 23 -4 42 -10 42
-5 0 -10 -12 -10 -27z" id="node92" class="node" fill="#052459"></path>
<path style="position: relative; fill: rgb(6, 11, 161);" d="M2180 1767 c0 -24 33 -67 51 -67 10 0 3 42 -13 73 -13 25 -38 21 -38
-6z" id="node93" class="node" fill="#060ba1"></path>
<path style="position: relative; fill: rgb(5, 22, 150);" d="M1950 1680 c0 -6 39 -10 96 -10 61 0 93 4 89 10 -3 6 -46 10 -96 10
-53 0 -89 -4 -89 -10z" id="node94" class="node" fill="#051696"></path>
<path style="position: relative; fill: rgb(9, 38, 153);" d="M1950 1620 c0 -6 37 -10 90 -10 53 0 90 4 90 10 0 6 -37 10 -90 10
-53 0 -90 -4 -90 -10z" id="node95" class="node" fill="#092699"></path>
<path style="position: relative; fill: rgb(4, 9, 135);" d="M1961 1561 c-23 -14 3 -21 68 -17 77 5 93 16 23 16 -27 0 -56 2 -64
5 -7 3 -19 1 -27 -4z" id="node96" class="node" fill="#040987"></path>
<path style="position: relative; fill: rgb(9, 36, 133);" d="M923 1743 c-26 -10 -12 -23 25 -23 35 1 36 2 18 15 -21 16 -24 16
-43 8z" id="node97" class="node" fill="#092485"></path>
<path style="position: relative; fill: rgb(5, 18, 130);" d="M860 1730 c-13 -8 -13 -10 2 -10 9 0 20 5 23 10 8 13 -5 13 -25 0z" id="node98" class="node" fill="#051282"></path>
<path style="position: relative; fill: rgb(9, 31, 99);" d="M995 1730 c3 -5 14 -10 23 -10 15 0 15 2 2 10 -20 13 -33 13 -25 0z" id="node99" class="node" fill="#091f63"></path>
<path style="position: relative; fill: rgb(19, 51, 133);" d="M773 1693 c-18 -7 -16 -23 2 -23 8 0 15 7 15 15 0 8 -1 15 -2 14 -2
0 -9 -3 -15 -6z" id="node100" class="node" fill="#133385"></path>
<path style="position: relative; fill: rgb(17, 34, 117);" d="M820 1685 c-12 -15 -11 -16 16 -13 16 1 28 8 27 13 -3 17 -29 17 -43
0z" id="node101" class="node" fill="#112275"></path>
<path style="position: relative; fill: rgb(13, 13, 133);" d="M890 1685 c0 -11 12 -15 50 -15 38 0 50 4 50 15 0 11 -12 15 -50 15
-38 0 -50 -4 -50 -15z" id="node102" class="node" fill="#0d0d85"></path>
<path style="position: relative; fill: rgb(14, 10, 135);" d="M1020 1686 c0 -11 9 -16 26 -16 31 0 28 23 -4 28 -15 2 -22 -2 -22
-12z" id="node103" class="node" fill="#0e0a87"></path>
<path style="position: relative; fill: rgb(12, 91, 133);" d="M1090 1686 c0 -9 7 -16 16 -16 17 0 14 22 -4 28 -7 2 -12 -3 -12 -12z" id="node104" class="node" fill="#0c5b85"></path>
<path style="position: relative; fill: rgb(9, 30, 133);" d="M762 1639 c2 -7 10 -15 17 -17 8 -3 12 1 9 9 -2 7 -10 15 -17 17 -8
3 -12 -1 -9 -9z" id="node105" class="node" fill="#091e85"></path>
<path style="position: relative; fill: rgb(29, 8, 112);" d="M817 1644 c-11 -12 3 -24 29 -24 16 0 24 5 22 13 -5 13 -40 22 -51
11z" id="node106" class="node" fill="#1d0870"></path>
<path style="position: relative; fill: rgb(7, 15, 133);" d="M890 1635 c0 -11 12 -15 50 -15 38 0 50 4 50 15 0 11 -12 15 -50 15
-38 0 -50 -4 -50 -15z" id="node107" class="node" fill="#070f85"></path>
<path style="position: relative; fill: rgb(12, 10, 133);" d="M1016 1635 c-5 -13 0 -16 19 -13 32 4 38 22 9 26 -13 2 -24 -4 -28
-13z" id="node108" class="node" fill="#0c0a85"></path>
<path style="position: relative; fill: rgb(10, 23, 140);" d="M1095 1639 c-4 -6 -5 -13 -2 -16 7 -7 27 6 27 18 0 12 -17 12 -25 -2z" id="node109" class="node" fill="#0a178c"></path>
<path style="position: relative; fill: rgb(37, 18, 163);" d="M855 1590 c3 -5 10 -10 16 -10 5 0 9 5 9 10 0 6 -7 10 -16 10 -8 0
-12 -4 -9 -10z" id="node110" class="node" fill="#2512a3"></path>
<path style="position: relative; fill: rgb(14, 16, 153);" d="M921 1585 c9 -9 23 -13 32 -9 28 10 19 24 -15 24 -29 0 -31 -2 -17
-15z" id="node111" class="node" fill="#0e1099"></path>
<path style="position: relative; fill: rgb(26, 10, 145);" d="M1000 1590 c0 -5 4 -10 9 -10 6 0 13 5 16 10 3 6 -1 10 -9 10 -9 0
-16 -4 -16 -10z" id="node112" class="node" fill="#1a0a91"></path>
<path style="position: relative; fill: rgb(13, 8, 153);" d="M2275 1548 c-10 -24 -25 -48 -32 -53 -13 -10 -9 -45 6 -45 22 1 78
111 66 130 -11 18 -21 10 -40 -32z" id="node113" class="node" fill="#0d0899"></path>
<path style="position: relative; fill: rgb(6, 28, 115);" d="M714 1476 c-9 -36 3 -63 31 -68 34 -7 69 13 73 40 5 34 -15 52 -59
52 -33 0 -40 -4 -45 -24z" id="node114" class="node" fill="#061c73"></path>
<path style="position: relative; fill: rgb(3, 11, 133);" d="M1012 1420 c-26 -11 -45 -54 -36 -84 15 -50 65 -78 57 -32 -3 16 -13
26 -27 28 -28 4 -27 32 2 36 16 3 22 10 22 28 0 17 5 24 20 24 15 0 20 -7 20
-24 0 -18 6 -25 23 -28 12 -2 22 -10 22 -18 0 -8 -10 -16 -22 -18 -17 -3 -23
-10 -23 -28 0 -28 21 -32 41 -8 21 26 16 80 -11 109 -24 26 -49 30 -88 15z" id="node115" class="node" fill="#030b85"></path>
<path style="position: relative; fill: rgb(9, 11, 133);" d="M1122 1248 c-7 -7 -12 -20 -12 -30 0 -15 9 -18 55 -18 57 0 63 6 45
41 -12 22 -68 27 -88 7z" id="node116" class="node" fill="#090b85"></path>
<path style="position: relative; fill: rgb(30, 13, 140);" d="M1136 1144 c-20 -19 -20 -28 -1 -44 13 -11 15 -8 15 14 0 16 5 26 15
26 10 0 15 -10 15 -27 0 -25 1 -26 16 -11 13 12 14 20 5 37 -14 25 -43 27 -65
5z" id="node117" class="node" fill="#1e0d8c"></path>
<path style="position: relative; fill: rgb(14, 23, 145);" d="M810 1300 c0 -5 5 -10 10 -10 6 0 10 5 10 10 0 6 -4 10 -10 10 -5 0
-10 -4 -10 -10z" id="node118" class="node" fill="#0e1791"></path>
<path style="position: relative; fill: rgb(12, 12, 148);" d="M810 1221 c0 -6 5 -13 10 -16 6 -3 10 1 10 9 0 9 -4 16 -10 16 -5 0
-10 -4 -10 -9z" id="node119" class="node" fill="#0c0c94"></path>
<path style="position: relative; fill: rgb(17, 23, 135);" d="M1440 1031 c0 -10 36 -21 65 -20 16 0 13 4 -10 14 -35 16 -55 19 -55
6z" id="node120" class="node" fill="#111787"></path>
</g>
</svg>